<svg xmlns="http://www.w3.org/2000/svg" xmlns:xlink="http://www.w3.org/1999/xlink" version="1.1" viewBox="0 0 1300 420" style="background: #ffffff"><g transform="translate(12,50)"><rect width="225" height="150" rx="10" ry="10" x="0" y="0" fill="#ffffff" stroke-width="1" stroke="#0f5eaa" stroke-dasharray=""/><text x="112" y="38" text-anchor="middle" dominant-baseline="hanging" fill="#0f5eaa" font-size="15px" font-family="Open Sans, Tahoma, Arial"><tspan x="112" dy="20px">Boundary, Software</tspan><tspan x="112" dy="20px">System</tspan></text></g><g transform="translate(262,50)"><rect width="225" height="150" rx="10" ry="10" x="0" y="0" fill="#438dd5" stroke-width="2.5" stroke="#1168bd" stroke-dasharray=""/><text x="112" y="47" text-anchor="middle" dominant-baseline="hanging" fill="#ffffff" font-size="15px" font-family="Open Sans, Tahoma, Arial"><tspan x="112" dy="20px">Container, Changed</tspan></text></g><g transform="translate(512,50)"><rect width="225" height="150" rx="10" ry="10" x="0" y="0" fill="#438dd5" stroke-width="2.5" stroke="#2ea44f" stroke-dasharray=""/><text x="112" y="47" text-anchor="middle" dominant-baseline="hanging" fill="#ffffff" font-size="15px" font-family="Open Sans, Tahoma, Arial"><tspan x="112" dy="20px">Container, New</tspan></text></g><g transform="translate(762,50)"><rect width="225" height="150" rx="1.5" ry="1.5" x="0" y="0" fill="#ffffff" stroke-width="1" stroke="#444444" stroke-dasharray="2,4"/><text x="112" y="47" text-anchor="middle" dominant-baseline="hanging" fill="#444444" font-size="15px" font-family="Open Sans, Tahoma, Arial"><tspan x="112" dy="20px">Group</tspan></text></g><g transform="translate(1012,50)"><rect width="225" height="150" rx="10" ry="10" x="0" y="0" fill="#1168bd" stroke-width="1" stroke="#0f5eaa" stroke-dasharray=""/><text x="112" y="47" text-anchor="middle" dominant-baseline="hanging" fill="#ffffff" font-size="15px" font-family="Open Sans, Tahoma, Arial"><tspan x="112" dy="20px">Software System</tspan></text></g><g transform="translate(12,250)"><rect width="225" height="150" rx="10" ry="10" x="0" y="0" fill="#666666" stroke-width="1" stroke="#5c5c5c" stroke-dasharray=""/><text x="112" y="38" text-anchor="middle" dominant-baseline="hanging" fill="#ffffff" font-size="15px" font-family="Open Sans, Tahoma, Arial"><tspan x="112" dy="20px">Software System,</tspan><tspan x="112" dy="20px">External</tspan></text></g><g transform="translate(262,285)"><path d="M211,0 L211,22 L225,15 L 211,8" style="fill:#444444" /><path d="M0,15 L211,15" style="stroke:#444444; stroke-width: 1; fill: none; stroke-dasharray: 4 4;" /><text x="112" y="27" text-anchor="middle" dominant-baseline="hanging" fill="#444444" font-size="15px" font-family="Open Sans, Tahoma, Arial"><tspan x="112" dy="20px">Dataflow</tspan></text></g><g transform="translate(512,285)"><path d="M209,0 L209,23 L225,15 L 209,7" style="fill:#2ea44f" /><path d="M0,15 L209,15" style="stroke:#2ea44f; stroke-width: 1.5; fill: none; stroke-dasharray: 6 6;" /><text x="112" y="27" text-anchor="middle" dominant-baseline="hanging" fill="#2ea44f" font-size="15px" font-family="Open Sans, Tahoma, Arial"><tspan x="112" dy="20px">Dataflow, New</tspan></text></g></svg>